<?xml version="1.0" encoding="UTF-8"?>
<!DOCTYPE svg PUBLIC "-//W3C//DTD SVG 1.1//EN" "http://www.w3.org/Graphics/SVG/1.1/DTD/svg11.dtd">
<svg version="1.1" id="Layer_1" xmlns="http://www.w3.org/2000/svg" xmlns:xlink="http://www.w3.org/1999/xlink" x="0px" y="0px" viewBox="0 0 1645.337 1646.304" enable-background="new 0 0 1645.337 1646.304" xml:space="preserve">
<g>
	<path d="M1255.194,151.2c98.649,62.598,185.339,158.066,188.106,171.519c0.607,17.196-14.412,15.732-18.755,15.79   c-20.498-13.088-134.625-182.467-385.191-254.476C740.95-3.601,399.074,98.307,204.484,362.765   c-4.684,0.123-9.347,0.143-14.01,0.041c-2.209-2.229-4.418-4.418-6.647-6.586c0-5.747-1.514-12.476,3.088-16.996   C472.755-19.872,929.895-59.012,1255.194,151.2z"/>
	<path d="M867.119,123.507c2.823,2.843,5.604,5.727,8.345,8.631c0,3.743-0.041,7.486-0.041,11.229   c-14.306,13.957,3.729,6.592-64.611,8.324C534.49,154.028,264.199,339.271,177.097,635.67   C121.799,825.618,194.19,888.146,60.515,996.951c-4.316,0.082-8.713,0.471-12.967-0.429c-7.956-3.702-10.022-15.462-4.684-22.069   c2.049-1.974,61.01-40.638,74.469-112.369c3.804-15.176,3.334-30.864,4.827-46.306c-3.12-282.397,196.283-583.787,516.908-668.751   C709.194,124.944,796.828,121.05,867.119,123.507z"/>
	<path d="M955.067,145.841c4.622-6.054,11.781-9.777,19.41-7.24c271.189,67.749,442.755,251.33,513.636,462.585   c88.302,265.993-17.389,676.645-49.599,734.691c-6.197,0.818-12.435,0.859-18.653,0.389c-6.259-6.422-5.747-15.667-2.864-23.541   c54.314-167.08,76.506-337.307,76.249-417.711c0.368-0.286,1.064-0.88,1.432-1.166c-0.915-87.491,25.933-325.831-209.807-558.919   c-100.261-94.431-228.364-150.843-316.858-167.694c-5.686-0.736-9.367-5.297-13.151-9.061   C954.924,154.063,955.006,149.952,955.067,145.841z"/>
	<path d="M1420.904,745.952c8.796,39.047,7.363,176.975-14.051,316.858c-15.285,11.928-20.537,4.388-26.63-0.634   c-1.268-17.589,3.395-34.729,5.072-52.135c5.7-34.374,9.779-112.521,11.086-122.656c-0.169-54.053,22.732-273.185-158.163-460.212   c-48.035-46.169,0.425-4.754-73.569-65.429c-225.908-166.546-534.473-143.228-731.214,40.006   c-26.934,28.064-40.812-3.63-27.632-13.438C764.993,41.279,1361.386,262.581,1420.904,745.952z"/>
	<path d="M1312.994,701.508c7.621,31.865,4.834,26.013-2.7,35.772c-4.397-0.02-8.774,0.164-13.09-0.409   c-4.275-2.25-6.954-6.79-8.304-11.27c-27.079-107.546-73.7-200.21-173.707-277.813c-74.165-58.155-168.016-90.064-219.726-93.838   c3.15-0.573,6.32-1.104,9.49-1.616c-26.796,1.988-115.624-24.695-261.9,30.107c-187.936,78.133-270.924,250.877-283.806,335.061   c-0.327-1.432-0.634-2.884-0.961-4.295c-0.182,5.273-8.627,56.419-9.142,58.434c-2.393,7.649-10.165,11.474-17.835,10.329   c-10.468-9.791-12.944-5.529-7.118-37.02c28.302-186.921,167.538-354.385,365.924-408.651   C1020.717,263.127,1256.163,469.03,1312.994,701.508z"/>
	<path d="M149.199,417.784c4.929,4.459,9.94,10.595,7.445,17.753c-4.675,12.074-88.807,139.955-101.774,329.007   c-5.882,35.811,3.537,63.925-8.283,70.522c-48.356,34.749-21.774-223.212,78.396-400.94   C137.522,412.943,135.36,418.659,149.199,417.784z"/>
	<path d="M846.155,417.784c4.541,3.927,8.181,9.388,8.263,15.565c-1.493,3.927-4.05,7.281-6.422,10.697   c-2.188,0.655-4.357,1.309-6.504,2.004c-30.035,0.58-74.407-3.245-145.605,21.496c-70.87,26.081-127.187,68.249-167.305,119.139   c-148.129,181.736-19.443,322.37-182.85,537.054c-4.868,0.041-9.715,0-14.542-0.123c-1.882-1.902-3.763-3.763-5.625-5.625   c-0.777-2.7-1.554-5.338-2.373-7.977c4.939-12.399,97.414-136.366,92.038-275.89c2.274-32.374-3.277-165.189,109.076-286.485   c47.983-52.462,110.323-91.179,177.982-112.716C768.316,417.79,778.01,416.7,846.155,417.784z"/>
	<path d="M1502.286,418.438c3.518,0.348,6.954,1.35,10.411,2.127c50.691,73.09,111.822,262.11,109.198,378.769   c2.663,96.04-12.919,180.596-19.042,194.835c-6.709,4.172-14.297,2.925-21.271,0.266c-1.554-2.863-3.579-5.563-4.418-8.733   c0.593-5.543,1.677-11.024,2.393-16.546c27.743-125.817,5.506-258.822,4.868-270.184c-0.286,1.084-0.859,3.252-1.145,4.357   c-0.086-12.696-16.841-129.747-89.032-258.382C1485.923,430.577,1491.032,421.187,1502.286,418.438z"/>
	<path d="M925.103,430.915c66.422,2.774,296.112,124.826,304.32,376.662c2.799,180.416-33.595,356.014-95.208,503.695   c-15.156,4.21-13.413,3.969-23.93-4.356c-0.279-24.28,6.452-19.78,25.423-82.262c49.531-144.449,88.045-383.907,48.985-511.304   c-19.487-72.769-78.802-159.805-162.847-211.075c-47.761-29.84-86.527-39.177-100.301-43.749   C906.805,454.362,910.897,430.691,925.103,430.915z"/>
	<path d="M357.595,440.2c7.199-0.961,14.685-0.45,20.126,4.888c0.879,3.559,2.066,7.077,2.393,10.738   c-2.277,5.272-119.165,141.86-129.161,317.164c-3.234,19.087,1.043,98.852-17.262,145.073   c-37.478,119.452-146.696,187.796-160.658,175.977c-6.32-3.416-6.034-10.922-6.034-17.037   c11.368-14.485,88.2-43.746,129.488-142.046c39.419-86.421,7.249-134.977,45.222-273.068   C264.452,581.04,303.926,504.852,357.595,440.2z"/>
	<path d="M991.044,564.964c1.575,0.286,3.17,0.552,4.786,0.859c-0.859,1.493-1.82,2.986-2.209,4.704   c1.861,0.266,5.563,0.798,7.404,1.064c82.588,57.21,135.452,160.753,129.835,259.651c-2.393,1.984-4.786,3.988-7.138,5.993   c-4.561,0.061-9.081,0.102-13.622,0.123c-3.293-3.845-7.69-7.793-7.527-13.294c3.917-232.179-293.593-393.992-491.301-183.034   c-4.643,5.706-13.131,5.502-19.533,3.436c-2.659-2.373-4.806-5.216-7.077-7.915C580.398,599.854,783.127,433.574,991.044,564.964z"/>
	<path d="M800.729,614.337c19.705-0.7,20.317,28.618-0.143,29.064c-75.453,8.581-145.057,68.886-157.14,152.047   c-5.454,25.563,4.643,109.044-32.725,233.041c-5.427,18.474-29.651,88.481-42.399,101.528c-4.704-0.102-9.388-0.123-14.092-0.061   c-6.913-4.868-8.427-13.867-5.052-21.394c75.605-161.344,56.132-274.641,69.458-335.94   C644.089,678.268,719.581,623.331,800.729,614.337z"/>
	<path d="M891.479,638.533c4.684-4.479,11.106-10.165,17.999-6.484c59.784,26.364,105.599,82.528,119.016,146.546   c11.254,43.551,9.018,229.649-63.854,426.404c-17.291,9.592-28.638-1.726-22.989-18.674c42.48-118.375,65.703-248.148,62.3-385.539   c-0.368-0.307-1.084-0.92-1.452-1.227c0-29.812-25.996-96.675-85.677-131.267c-8.324-5.093-17.487-8.733-25.239-14.747   C891.458,648.534,891.417,643.523,891.479,638.533z"/>
	<path d="M540.321,706.273c4.5,0.041,8.979,0.041,13.479,0.041c2.229,2.168,4.459,4.336,6.709,6.524   c2.616,16.815-4.861,13.732-15.892,78.846c-2.376,17.303,23.343,369.457-308.063,557.671c-4.888,2.332-10.574,0.982-15.81,1.268   c-6.974-6.013-8.018-15.831-3.477-23.644c124.403-69.456,213.736-175.932,262.596-307.183   C534.093,866.553,497.974,757.811,540.321,706.273z"/>
	<path d="M935.228,817.865c2.229,17.058-1.309,34.116-0.839,51.214c0.859,7.179-5.4,11.454-10.288,15.319   c-4.479-0.43-8.856-1.35-13.07-2.802c-1.636-2.25-3.293-4.459-4.97-6.668c-0.839-21.148,0.9-42.358-0.389-63.486   c-15.547-93.652-145.627-93.428-164.483-6.259c-4.377,35.322-1.35,71.34-7.322,106.581c-3.722,3.477-7.22,8.631-13.09,7.588   c-5.379,0.532-9.286-3.579-13.376-6.279c-0.818-12.701-0.47-25.464,1.698-38.002c1.207-26.937-1.166-54.282,5.175-80.748   C747.457,674.103,929.584,690.222,935.228,817.865z"/>
	<path d="M815.782,810.502c4.091-0.061,8.181-0.123,12.272-0.205c2.638,2.27,5.502,4.357,7.772,7.056   c4.784,10.638,23.967,430.968-355.514,723.606c-4.745,0.184-9.47,0.184-14.194,0.102c-10.62-15.51-8.344-19.653,5.4-29.882   c207.988-161.946,325.97-403.268,335.163-640.24C811.632,829.151,801.067,827.203,815.782,810.502z"/>
	<path d="M1306.797,810.44c3.968-0.02,7.956-0.02,11.965,0.02c2.761,2.168,5.727,4.152,8.202,6.729   c5.494,33.967-6.404,149.648-11.29,190.826c-38.756,295.705-186.001,540.87-207.536,563.807c-6.218-0.593-14.215,1.82-18.367-4.295   c-4.316-6.402-2.516-15.34,1.698-21.353c54.855-86.516,99.381-179.557,132.74-276.381c65.873-200.151,65.356-303.44,70.788-336.717   l0.9,2.843c0,0,0.503,5.742,2.986-116.95C1301.499,816.126,1304.138,813.283,1306.797,810.44z"/>
	<path d="M328.04,866.031c5.87-0.982,9.613,4.438,13.744,7.547c0.845,48.72-39.347,215.957-214.634,312.031   c-3.702,1.984-8.12,1.023-12.129,1.329c-2.72-1.82-5.481-3.559-8.283-5.256c-0.695-5.318-0.859-10.697-0.634-16.056   c12.419-11.137,159.453-72.28,202.464-258.464C314.267,886.293,311.094,866.578,328.04,866.031z"/>
	<path d="M1102.758,891.352c2.741-1.636,5.481-3.273,8.243-4.909c3.17-0.041,6.361-0.082,9.572-0.123   c16.791,15.747,4.452,16.598,6.3,46.04c-38.554,424.578-280.29,652.778-293.132,687.527c-7.322,4.111-15.81,3.232-23.869,3.089   c-7.036-6.197-8.979-17.753-1.943-24.728c169.928-190.426,266.443-420.076,290.003-666.01   C1100.917,918.739,1098.095,904.544,1102.758,891.352z"/>
	<path d="M900.355,948.314c4.234-1.616,8.324-4.213,12.967-4.418c7.138,1.82,14.542,8.304,12.456,16.383   c-24.913,201.424-129.413,383.081-145.277,391.715c-3.907-0.961-7.915-1.329-11.904-1.554c-3.661-3.743-6.156-8.324-8.038-13.151   c9.877-23.76,97.937-142.468,134.417-361.895C895.712,966.19,897.471,957.088,900.355,948.314z"/>
	<path d="M697.809,972.653c7.588-4.131,20.003-5.031,23.746,4.602c4.463,20.424-57.942,324.693-335.449,510.016   c-3.293,0.041-6.586,0.143-9.858,0.286c-9.985-9.09-8.785-6.777-8.283-21.619c23.091-18.203,47.942-34.3,69.867-53.996   C658.932,1225.659,687.664,993.71,697.809,972.653z"/>
	<path d="M293.454,1156.259c2.209,1.82,4.438,3.641,6.688,5.441c0.9,3.62,3.068,7.465,1.432,11.229   c-6.634,19.513-114.82,101.122-135.031,98.44c-5.216,0.716-8.324-3.866-11.658-6.974c0.841-32.111,15.635-8.318,101.59-84.757   C287.42,1151.944,274.165,1157.54,293.454,1156.259z"/>
	<path d="M512.26,1189.148c69.872,6.631-170.804,231.722-217.19,235.23c-3.129-2.904-6.238-5.788-9.286-8.713   c0.102-4.356,0.266-8.672,0.491-12.967c24.333-22.25,59.508-30.575,151.107-125.99   C503.928,1199.687,499.513,1187.926,512.26,1189.148z"/>
	<path d="M1329.847,1265.253c5.093-3.866,11.208-5.4,17.548-5.154c11.968,12.231,13.567,8.447-15.442,85.78   c-2.421,7.911-53.589,140.078-69.438,145.482c-3.866,0.02-7.588-1.207-11.351-1.902c-4.541-4.909-7.097-11.065-5.563-17.815   C1286.741,1395.853,1327.8,1270.767,1329.847,1265.253z"/>
	<path d="M913.343,1295.237c2.025,3.293,5.031,6.3,5.42,10.349c3.55,22.132-127.606,228.993-221.281,306.815   c-4.07-0.082-8.14-0.123-12.19-0.143c-2.209-2.25-4.438-4.459-6.627-6.647c-0.164-4.929-0.123-9.838,0.184-14.706   c67.956-63.328,143.28-158.756,199.826-263.966C898.61,1292.053,890.322,1294.955,913.343,1295.237z"/>
	<path d="M1075.535,1373.061c2.229-5.113,6.279-9.02,10.779-12.17c3.088,0.02,6.197,0.02,9.306,0   c6.095,4.418,11.945,11.331,8.406,19.349c-51.482,107.75-120.186,206.854-143.866,231.957c-4.213,0.021-8.427,0.061-12.619,0.123   c-2.373-2.229-4.704-4.438-7.036-6.627c-0.061-4.459-0.082-8.876-0.041-13.294   C992.373,1523.82,1038.208,1450.598,1075.535,1373.061z"/>
	<path d="M760.641,1380.649c3.929,22.143-163.688,207.919-184.977,203.63c-6.995-0.245-10.676-6.545-13.765-11.904   c3.334-15.565,18.796-23.051,29.064-33.625c50.391-43.994,105.354-109.109,140.982-160.27   C745.228,1360.454,759.302,1372.272,760.641,1380.649z"/>
</g>
</svg>