<?xml version="1.0" encoding="utf-8"?>
<!-- Generator: Adobe Illustrator 16.0.0, SVG Export Plug-In . SVG Version: 6.00 Build 0)  -->
<!DOCTYPE svg PUBLIC "-//W3C//DTD SVG 1.1//EN" "http://www.w3.org/Graphics/SVG/1.1/DTD/svg11.dtd">
<svg version="1.1" id="Layer_1" xmlns="http://www.w3.org/2000/svg" xmlns:xlink="http://www.w3.org/1999/xlink" x="0px" y="0px"
	 width="250px" height="80px" viewBox="0 0 250 80" enable-background="new 0 0 250 80" xml:space="preserve">
<g>
	<path fill="#FFFFFF" stroke="#F1F2F2" stroke-width="8" stroke-miterlimit="10" d="M24.496,39.654l7.251-0.488
		C31.649,40.175,31.6,41.086,31.6,41.9c0,3.695,0.919,5.542,2.759,5.542h0.098c2.229-0.065,3.345-1.253,3.345-3.564v-0.22
		c-0.082-2.458-2.189-4.866-6.323-7.227c-4.021-2.278-6.03-6.038-6.03-11.279c0-0.163,0.008-0.325,0.024-0.488
		c0.114-5.485,3.19-8.276,9.229-8.374h0.195c5.452,0,8.179,3.475,8.179,10.425c0,0.554-0.017,1.14-0.049,1.758l-6.372,0.366
		c0.065-0.732,0.098-1.408,0.098-2.026c0-2.913-0.708-4.37-2.124-4.37c-1.709,0-2.645,0.871-2.808,2.612
		c-0.017,0.244-0.024,0.488-0.024,0.732c0,1.449,0.431,2.8,1.294,4.053c0.993,1.449,2.698,2.775,5.115,3.979
		c2.417,1.205,4.105,2.856,5.066,4.956c0.684,1.514,1.025,3.125,1.025,4.834c0,0.651-0.049,1.318-0.146,2.002
		c-0.375,2.458-1.416,4.497-3.125,6.116c-1.709,1.62-4.004,2.502-6.885,2.649c-0.195,0.017-0.391,0.024-0.586,0.024
		c-2.621,0-4.81-0.96-6.567-2.881c-1.693-1.839-2.539-5.184-2.539-10.034C24.447,40.899,24.463,40.289,24.496,39.654z"/>
	<path fill="#FFFFFF" stroke="#F1F2F2" stroke-width="8" stroke-miterlimit="10" d="M55.843,27.52
		c5.354,0.293,8.032,2.987,8.032,8.081v17.334l-5.688,0.098l-0.195-2.319c-1.172,1.335-2.727,2.002-4.663,2.002
		c-0.83,0-1.726-0.13-2.686-0.391c-2.881-0.716-4.321-2.946-4.321-6.689c0-0.456,0.024-0.944,0.073-1.465
		c0.325-3.857,3.068-5.786,8.228-5.786c0.993,0,2.083,0.073,3.271,0.22v-2.832c0-2.295-0.725-3.442-2.173-3.442h-0.098
		c-0.114-0.016-0.22-0.024-0.317-0.024c-1.579,0-2.368,1.286-2.368,3.857v0.366l-5.811-0.488c0-5.68,2.734-8.521,8.203-8.521H55.843
		z M57.894,46.807V42.51c-0.7-0.146-1.335-0.22-1.904-0.22c-1.481,0-2.49,0.497-3.027,1.489c-0.326,0.603-0.488,1.164-0.488,1.685
		c0,0.651,0.26,1.229,0.781,1.733c0.407,0.391,0.936,0.586,1.587,0.586C55.672,47.784,56.689,47.458,57.894,46.807z"/>
	<path fill="#FFFFFF" stroke="#F1F2F2" stroke-width="8" stroke-miterlimit="10" d="M69.759,27.715l0.098,3.906
		c0.879-1.872,1.896-3.035,3.052-3.491c0.684-0.26,1.375-0.391,2.075-0.391c0.521,0,1.042,0.065,1.562,0.195
		c1.27,0.326,2.173,1.628,2.71,3.906c0.423-1.774,1.155-2.958,2.197-3.552c1.042-0.594,2.197-0.899,3.467-0.916h0.098
		c1.237,0,2.425,0.301,3.564,0.903c1.155,0.619,2.039,1.778,2.649,3.479c0.61,1.701,0.932,4.033,0.964,6.995v14.185l-5.273,0.122
		c0.211-5.354,0.317-9.912,0.317-13.672s-0.716-5.786-2.148-6.079c-0.212-0.032-0.415-0.049-0.61-0.049
		c-1.14,0-2.019,0.732-2.637,2.197c-0.098,1.693-0.146,3.67-0.146,5.933c0,3.076,0.089,6.665,0.269,10.767l-6.104,0.049
		c0.228-6.299,0.342-10.889,0.342-13.77V38.14c-0.017-2.848-0.578-4.346-1.685-4.492h-0.317c-0.993,0-1.953,0.57-2.881,1.709
		l0.049,17.871l-5.762,0.22v-4.004c0-7.096-0.106-14.185-0.317-21.265L69.759,27.715z"/>
	<path fill="#FFFFFF" stroke="#F1F2F2" stroke-width="8" stroke-miterlimit="10" d="M93.807,63.042
		c0.098-5.485,0.146-11.32,0.146-17.505c0-5.631-0.041-11.54-0.122-17.725l5.786-0.024l0.195,3.76
		c1.204-1.823,2.808-2.734,4.81-2.734c4.997,0,7.495,3.947,7.495,11.841v0.488c-0.114,7.91-2.604,11.865-7.471,11.865
		c-0.195,0-0.391-0.008-0.586-0.024c-1.66-0.081-3.003-0.984-4.028-2.71c0,3.613,0.089,7.869,0.269,12.769H93.807z M99.911,36.553
		l0.122,9.18c0.944,1.286,1.896,1.929,2.856,1.929c0.391,0,0.781-0.114,1.172-0.342c1.188-0.651,1.782-2.596,1.782-5.835
		c0-0.391-0.008-0.797-0.024-1.221c-0.163-3.971-0.952-6.062-2.368-6.274c-0.146-0.016-0.285-0.024-0.415-0.024
		C101.798,33.965,100.757,34.828,99.911,36.553z"/>
	<path fill="#FFFFFF" stroke="#F1F2F2" stroke-width="8" stroke-miterlimit="10" d="M120.907,52.886l-6.079,0.562
		c0.065-5.387,0.098-10.571,0.098-15.552c0-6.999-0.065-13.599-0.195-19.8l5.981-0.098c-0.065,3.988-0.098,8.081-0.098,12.28
		C120.614,37.522,120.711,45.058,120.907,52.886z"/>
	<path fill="#FFFFFF" stroke="#F1F2F2" stroke-width="8" stroke-miterlimit="10" d="M130.941,28.228
		c5.647,0,8.472,3.752,8.472,11.255c0,0.912-0.041,1.888-0.122,2.93h-10.913c0,4.183,0.806,6.274,2.417,6.274h0.171
		c1.416-0.114,2.124-1.196,2.124-3.247c0-0.439-0.033-0.928-0.098-1.465l5.811-0.122c0,6.201-2.71,9.343-8.13,9.424
		c-0.065,0.017-0.122,0.024-0.171,0.024c-5.16,0-7.739-3.914-7.739-11.743v-0.732C122.925,32.427,125.651,28.228,130.941,28.228z
		 M127.792,37.92h5.518v-0.586c0-2.962-0.838-4.443-2.515-4.443C128.988,32.891,127.987,34.568,127.792,37.92z"/>
	<path fill="#FFFFFF" stroke="#F1F2F2" stroke-width="8" stroke-miterlimit="10" d="M150.545,24.444v-6.421
		c2.393,0.065,4.761,0.098,7.104,0.098c3.646,0,7.218-0.073,10.718-0.22l0.22,6.836h-6.152c0,11.572,0.122,20.752,0.366,27.539
		l-6.885,0.342c0.358-11.556,0.618-20.979,0.781-28.271L150.545,24.444z"/>
	<path fill="#FFFFFF" stroke="#F1F2F2" stroke-width="8" stroke-miterlimit="10" d="M178.67,28.228
		c5.647,0,8.472,3.752,8.472,11.255c0,0.912-0.041,1.888-0.122,2.93h-10.913c0,4.183,0.806,6.274,2.417,6.274h0.171
		c1.416-0.114,2.124-1.196,2.124-3.247c0-0.439-0.033-0.928-0.098-1.465l5.811-0.122c0,6.201-2.71,9.343-8.13,9.424
		c-0.065,0.017-0.122,0.024-0.171,0.024c-5.16,0-7.739-3.914-7.739-11.743v-0.732C170.654,32.427,173.38,28.228,178.67,28.228z
		 M175.521,37.92h5.518v-0.586c0-2.962-0.838-4.443-2.515-4.443C176.717,32.891,175.716,34.568,175.521,37.92z"/>
	<path fill="#FFFFFF" stroke="#F1F2F2" stroke-width="8" stroke-miterlimit="10" d="M195.101,27.764l2.563,9.595l2.539-9.668
		l6.445,0.757c-1.498,3.174-3.093,7.04-4.785,11.597c1.497,3.939,3.149,7.967,4.956,12.085l-6.299,0.684l-3.076-9.399l-2.93,9.326
		l-5.981-0.781c1.741-3.955,3.385-7.845,4.932-11.67l-4.785-11.548L195.101,27.764z"/>
	<path fill="#FFFFFF" stroke="#F1F2F2" stroke-width="8" stroke-miterlimit="10" d="M212.875,20.44l5.542-0.366v8.081l4.663-0.122
		l0.073,4.614l-4.736,0.22v11.108c0,2.588,1.099,3.882,3.296,3.882c0.456,0,0.952-0.057,1.489-0.171l-0.22,5.371
		c-0.781,0.098-1.522,0.146-2.222,0.146c-5.144,0-7.764-2.653-7.861-7.959V33.306l-4.004,0.244l-0.098-5.444l4.102,0.049
		L212.875,20.44z"/>
</g>
<g>
	<path fill="#000000" d="M24.496,39.654l7.251-0.488C31.649,40.175,31.6,41.087,31.6,41.9
		c0,3.695,0.919,5.542,2.759,5.542h0.098c2.229-0.065,3.345-1.253,3.345-3.564v-0.22c-0.082-2.458-2.189-4.866-6.323-7.227
		c-4.021-2.278-6.03-6.038-6.03-11.279c0-0.163,0.008-0.325,0.024-0.488c0.114-5.485,3.19-8.276,9.229-8.374h0.195
		c5.452,0,8.179,3.475,8.179,10.425c0,0.554-0.017,1.14-0.049,1.758l-6.372,0.366c0.065-0.732,0.098-1.408,0.098-2.026
		c0-2.913-0.708-4.37-2.124-4.37c-1.709,0-2.645,0.871-2.808,2.612c-0.017,0.244-0.024,0.488-0.024,0.732
		c0,1.449,0.431,2.8,1.294,4.053c0.993,1.449,2.698,2.775,5.115,3.979c2.417,1.205,4.105,2.856,5.066,4.956
		c0.684,1.514,1.025,3.125,1.025,4.834c0,0.651-0.049,1.318-0.146,2.002c-0.375,2.458-1.416,4.497-3.125,6.116
		c-1.709,1.62-4.004,2.502-6.885,2.649c-0.195,0.017-0.391,0.024-0.586,0.024c-2.621,0-4.81-0.96-6.567-2.881
		c-1.693-1.839-2.539-5.184-2.539-10.034C24.447,40.899,24.463,40.289,24.496,39.654z"/>
	<path fill="#000000" d="M55.843,27.521c5.354,0.293,8.032,2.987,8.032,8.081v17.334l-5.688,0.098l-0.195-2.319
		c-1.172,1.335-2.727,2.002-4.663,2.002c-0.83,0-1.726-0.13-2.686-0.391c-2.881-0.716-4.321-2.946-4.321-6.689
		c0-0.456,0.024-0.944,0.073-1.465c0.325-3.857,3.068-5.786,8.228-5.786c0.993,0,2.083,0.073,3.271,0.22v-2.832
		c0-2.295-0.725-3.442-2.173-3.442h-0.098c-0.114-0.016-0.22-0.024-0.317-0.024c-1.579,0-2.368,1.286-2.368,3.857v0.366
		l-5.811-0.488c0-5.68,2.734-8.521,8.203-8.521H55.843z M57.894,46.808v-4.297c-0.7-0.146-1.335-0.22-1.904-0.22
		c-1.481,0-2.49,0.497-3.027,1.489c-0.326,0.603-0.488,1.164-0.488,1.685c0,0.651,0.26,1.229,0.781,1.733
		c0.407,0.391,0.936,0.586,1.587,0.586C55.672,47.784,56.689,47.459,57.894,46.808z"/>
	<path fill="#000000" d="M69.759,27.716l0.098,3.906c0.879-1.872,1.896-3.035,3.052-3.491
		c0.684-0.26,1.375-0.391,2.075-0.391c0.521,0,1.042,0.065,1.562,0.195c1.27,0.326,2.173,1.628,2.71,3.906
		c0.423-1.774,1.155-2.958,2.197-3.552c1.042-0.594,2.197-0.899,3.467-0.916h0.098c1.237,0,2.425,0.301,3.564,0.903
		c1.155,0.619,2.039,1.778,2.649,3.479c0.61,1.701,0.932,4.033,0.964,6.995v14.185l-5.273,0.122
		c0.211-5.354,0.317-9.912,0.317-13.672s-0.716-5.786-2.148-6.079c-0.212-0.032-0.415-0.049-0.61-0.049
		c-1.14,0-2.019,0.732-2.637,2.197c-0.098,1.693-0.146,3.67-0.146,5.933c0,3.076,0.089,6.665,0.269,10.767l-6.104,0.049
		c0.228-6.299,0.342-10.889,0.342-13.77v-0.293c-0.017-2.848-0.578-4.346-1.685-4.492h-0.317c-0.993,0-1.953,0.57-2.881,1.709
		l0.049,17.871l-5.762,0.22v-4.004c0-7.096-0.106-14.185-0.317-21.265L69.759,27.716z"/>
	<path fill="#000000" d="M93.807,63.043c0.098-5.485,0.146-11.32,0.146-17.505c0-5.631-0.041-11.54-0.122-17.725
		l5.786-0.024l0.195,3.76c1.204-1.823,2.808-2.734,4.81-2.734c4.997,0,7.495,3.947,7.495,11.841v0.488
		c-0.114,7.91-2.604,11.865-7.471,11.865c-0.195,0-0.391-0.008-0.586-0.024c-1.66-0.081-3.003-0.984-4.028-2.71
		c0,3.613,0.089,7.869,0.269,12.769H93.807z M99.911,36.554l0.122,9.18c0.944,1.286,1.896,1.929,2.856,1.929
		c0.391,0,0.781-0.114,1.172-0.342c1.188-0.651,1.782-2.596,1.782-5.835c0-0.391-0.008-0.797-0.024-1.221
		c-0.163-3.971-0.952-6.062-2.368-6.274c-0.146-0.016-0.285-0.024-0.415-0.024C101.798,33.966,100.757,34.829,99.911,36.554z"/>
	<path fill="#000000" d="M120.907,52.887l-6.079,0.562c0.065-5.387,0.098-10.571,0.098-15.552
		c0-6.999-0.065-13.599-0.195-19.8l5.981-0.098c-0.065,3.988-0.098,8.081-0.098,12.28C120.614,37.522,120.711,45.058,120.907,52.887
		z"/>
	<path fill="#000000" d="M130.941,28.229c5.647,0,8.472,3.752,8.472,11.255c0,0.912-0.041,1.888-0.122,2.93h-10.913
		c0,4.183,0.806,6.274,2.417,6.274h0.171c1.416-0.114,2.124-1.196,2.124-3.247c0-0.439-0.033-0.928-0.098-1.465l5.811-0.122
		c0,6.201-2.71,9.343-8.13,9.424c-0.065,0.017-0.122,0.024-0.171,0.024c-5.16,0-7.739-3.914-7.739-11.743v-0.732
		C122.925,32.428,125.651,28.229,130.941,28.229z M127.792,37.921h5.518v-0.586c0-2.962-0.838-4.443-2.515-4.443
		C128.988,32.892,127.987,34.568,127.792,37.921z"/>
	<path fill="#000000" d="M150.545,24.444v-6.421c2.393,0.065,4.761,0.098,7.104,0.098c3.646,0,7.218-0.073,10.718-0.22
		l0.22,6.836h-6.152c0,11.572,0.122,20.752,0.366,27.539l-6.885,0.342c0.358-11.556,0.618-20.979,0.781-28.271L150.545,24.444z"/>
	<path fill="#000000" d="M178.67,28.229c5.647,0,8.472,3.752,8.472,11.255c0,0.912-0.041,1.888-0.122,2.93h-10.913
		c0,4.183,0.806,6.274,2.417,6.274h0.171c1.416-0.114,2.124-1.196,2.124-3.247c0-0.439-0.033-0.928-0.098-1.465l5.811-0.122
		c0,6.201-2.71,9.343-8.13,9.424c-0.065,0.017-0.122,0.024-0.171,0.024c-5.16,0-7.739-3.914-7.739-11.743v-0.732
		C170.654,32.428,173.38,28.229,178.67,28.229z M175.521,37.921h5.518v-0.586c0-2.962-0.838-4.443-2.515-4.443
		C176.717,32.892,175.716,34.568,175.521,37.921z"/>
	<path fill="#000000" d="M195.101,27.765l2.563,9.595l2.539-9.668l6.445,0.757c-1.498,3.174-3.093,7.04-4.785,11.597
		c1.497,3.939,3.149,7.967,4.956,12.085l-6.299,0.684l-3.076-9.399l-2.93,9.326l-5.981-0.781c1.741-3.955,3.385-7.845,4.932-11.67
		l-4.785-11.548L195.101,27.765z"/>
	<path fill="#000000" d="M212.875,20.44l5.542-0.366v8.081l4.663-0.122l0.073,4.614l-4.736,0.22v11.108
		c0,2.588,1.099,3.882,3.296,3.882c0.456,0,0.952-0.057,1.489-0.171l-0.22,5.371c-0.781,0.098-1.522,0.146-2.222,0.146
		c-5.144,0-7.764-2.653-7.861-7.959V33.307l-4.004,0.244l-0.098-5.444l4.102,0.049L212.875,20.44z"/>
</g>
</svg>
